<svg xmlns="http://www.w3.org/2000/svg" width="512" height="512"><path fill="#010203" d="M502 0c4.896 2.273 7.792 5.074 10 10 1.124 11.661-1.1 23.321-2.848 34.81l-.924 6.24a6577.045 6577.045 0 0 1-2.54 16.966c-.909 6.043-1.805 12.087-2.703 18.131a26610.36 26610.36 0 0 1-4.934 33.006c-1.509 10.06-3.014 20.12-4.516 30.18l-.301 2.013a310780.35 310780.35 0 0 0-4.52 30.27l-.3 2.018c-1.407 9.421-2.816 18.842-4.227 28.263-4.45 29.716-8.872 59.436-13.234 89.165-.96 6.533-1.92 13.065-2.883 19.597-.13.888-.262 1.776-.397 2.69-.514 3.493-1.03 6.985-1.545 10.477-1.456 9.873-2.906 19.747-4.343 29.623-.88 6.048-1.771 12.095-2.67 18.14-.507 3.409-1.009 6.818-1.498 10.228-.523 3.63-1.063 7.257-1.607 10.883l-.442 3.155c-1.108 7.212-2.725 13.44-8.13 18.582-4.634 2.97-9.09 3.2-14.438 2.563-5.307-1.38-10.453-3.19-15.625-5-1.576-.54-3.152-1.079-4.728-1.616-3.41-1.164-6.817-2.337-10.222-3.514a2663.623 2663.623 0 0 0-16.734-5.702 6525.93 6525.93 0 0 1-61.946-21.295A3742.578 3742.578 0 0 1 293 379l-.84 1.771c-1.103 2.119-2.304 3.96-3.707 5.89l-1.539 2.124-1.664 2.277-1.744 2.401a4117.964 4117.964 0 0 1-17.74 24.146c-2.926 3.96-5.846 7.926-8.766 11.891l-3.5 4.75-1.75 2.375-5.25 7.125-1.752 2.377c-1.16 1.576-2.321 3.15-3.483 4.726-3.007 4.08-6.012 8.163-9.011 12.249l-1.873 2.548a4459.96 4459.96 0 0 0-3.5 4.77C213.292 488.903 213.292 488.903 207 491c-5.697.564-10.128.286-15-3-4.552-4.805-6.253-9.19-6.24-15.764l-.009-3.489.022-3.799v-4.022c-.002-3.632.01-7.263.024-10.895.013-3.799.014-7.597.016-11.395.006-7.19.023-14.379.043-21.568.022-8.186.033-16.372.043-24.559.021-16.836.056-33.673.101-50.509l-2.186-.585c-5.068-1.367-10.1-2.76-15.072-4.445l-3.343-1.129-3.524-1.2-3.767-1.276c-3.344-1.132-6.687-2.27-10.029-3.407a8015.73 8015.73 0 0 0-6.294-2.139c-18.504-6.28-36.983-12.63-55.415-19.122a2053.56 2053.56 0 0 0-29.8-10.207 7578.87 7578.87 0 0 1-10.169-3.408l-2.034-.682c-3.983-1.335-7.97-2.66-11.958-3.978-3.08-1.02-6.156-2.055-9.233-3.086l-3.372-1.103c-6.99-2.36-14.018-4.785-18.777-10.674C-.884 270.797-.614 266.03 0 261c3.527-7.315 9.94-10.693 16.914-14.195l2.312-1.18c2.464-1.255 4.931-2.502 7.399-3.75 2.545-1.295 5.09-2.593 7.634-3.89a7080.76 7080.76 0 0 1 4.992-2.543 1165.372 1165.372 0 0 0 17.124-8.88l2.138-1.131 4.23-2.24c4.494-2.371 9.001-4.717 13.507-7.066a825403249.844 825403249.844 0 0 1 8.81-4.593A558667.844 558667.844 0 0 1 105.25 201l2.875-1.5 11.501-6 5.74-2.996c4.841-2.526 9.682-5.05 14.525-7.574a5941.099 5941.099 0 0 0 26.359-13.805c8.901-4.696 17.838-9.323 26.776-13.95a3156.16 3156.16 0 0 0 21.833-11.417c7.612-4.015 15.25-7.978 22.888-11.944 6.22-3.231 12.43-6.48 18.628-9.751 8.86-4.677 17.755-9.283 26.651-13.889a3156.9 3156.9 0 0 0 21.833-11.416c7.612-4.015 15.25-7.978 22.888-11.944 6.22-3.231 12.43-6.48 18.628-9.751A3272.39 3272.39 0 0 1 369.5 63c8.518-4.41 17.025-8.84 25.509-13.317 9-4.748 18.027-9.447 27.052-14.15L436.5 28c5.796-3.025 11.593-6.049 17.39-9.07l2.94-1.534a2005.35 2005.35 0 0 1 5.802-3.01c4.587-2.377 9.13-4.798 13.614-7.363C492.728-2.307 492.728-2.307 502 0Z"/><path fill="#63B4F5" d="M471 66h1c-.792 11.006-1.85 22.023-3.91 32.871-1.484 8-2.503 16.068-3.59 24.129-2.36 17.504-2.36 17.504-3.986 26.059-1.213 6.946-2.072 13.954-3.014 20.941-2.421 17.957-2.421 17.957-4.08 26.684-.621 3.427-1.023 6.855-1.42 10.316-.497 4.335-1.092 8.59-1.906 12.875-1.49 7.998-2.507 16.065-3.594 24.125-2.421 17.957-2.421 17.957-4.08 26.684-.621 3.427-1.023 6.855-1.42 10.316-.497 4.335-1.092 8.59-1.906 12.875-1.49 7.998-2.507 16.065-3.594 24.125-2.421 17.957-2.421 17.957-4.08 26.684-.621 3.427-1.023 6.855-1.42 10.316a225.164 225.164 0 0 1-2.492 16.117c-1.045 5.93-1.75 11.912-2.508 17.883-7.565-1.5-14.71-3.796-22-6.297l-3.794-1.289a5174.9 5174.9 0 0 1-10.112-3.449c-3.523-1.203-7.048-2.401-10.572-3.6a18989.69 18989.69 0 0 1-20.811-7.098l-12.718-4.338c-7.424-2.53-14.846-5.066-22.266-7.605-6.899-2.36-13.8-4.71-20.704-7.054A5811.605 5811.605 0 0 1 232 324c1.362-3.024 2.913-5.191 5.203-7.582l1.95-2.051 2.097-2.18 4.383-4.605 2.227-2.333c3.112-3.27 6.19-6.57 9.265-9.874l3.438-3.688 1.71-1.835c1.762-1.89 3.526-3.777 5.29-5.664a3268.598 3268.598 0 0 0 16.375-17.625c5.718-6.21 11.492-12.366 17.269-18.52 5.363-5.713 10.706-11.445 16.05-17.175l5.31-5.684a3281.807 3281.807 0 0 0 16.37-17.621c5.72-6.21 11.493-12.366 17.27-18.52 5.363-5.713 10.706-11.445 16.05-17.175l5.31-5.684a3281.807 3281.807 0 0 0 16.37-17.621c5.72-6.21 11.493-12.366 17.27-18.52 5.363-5.713 10.706-11.445 16.05-17.175l5.31-5.684a3277.75 3277.75 0 0 0 16.37-17.621C466.397 70.602 466.397 70.602 471 66Z"/><path fill="#63B4F4" d="m418 74 2 1-2.379 2.344c-5.199 5.146-10.301 10.29-15.047 15.863-2.159 2.459-4.49 4.72-6.824 7.012-1.832 1.865-3.544 3.8-5.25 5.781-2.753 3.196-5.647 6.172-8.656 9.125-1.777 1.807-3.438 3.668-5.09 5.59-3.668 4.218-7.47 8.292-11.317 12.347l-4.246 4.497-2.132 2.257c-3.073 3.26-6.13 6.533-9.184 9.809l-1.725 1.85-3.432 3.682c-2.905 3.116-5.811 6.23-8.718 9.343l-1.746 1.871-8.824 9.45a3295.156 3295.156 0 0 0-16.368 17.617c-5.718 6.208-11.492 12.365-17.269 18.519-5.363 5.713-10.706 11.445-16.05 17.175l-5.31 5.684a3281.807 3281.807 0 0 0-16.37 17.621c-5.72 6.21-11.493 12.366-17.27 18.52-4.2 4.475-8.39 8.961-12.576 13.45-2.993 3.212-5.99 6.42-8.994 9.62l-1.889 2.016c-1.18 1.258-2.36 2.516-3.541 3.772-3.714 3.966-7.29 8.031-10.793 12.185-7.66-1.436-14.833-3.944-22.143-6.59-3.802-1.375-7.61-2.729-11.42-4.082l-2.388-.849c-7.92-2.804-15.885-5.467-23.862-8.104a6537.193 6537.193 0 0 1-43.727-14.66c-2.37-.804-4.742-1.606-7.113-2.407a7748.21 7748.21 0 0 1-10.042-3.402l-3.01-1.015A310.53 310.53 0 0 1 57 264c4.313-3.824 8.982-6.142 14.125-8.625 1.815-.892 3.628-1.785 5.441-2.68.915-.45 1.829-.901 2.77-1.366 3.941-1.966 7.836-4.015 11.727-6.079 7.79-4.128 15.607-8.198 23.437-12.25a3681.11 3681.11 0 0 0 25.509-13.317c9-4.748 18.027-9.447 27.052-14.15L181.5 198l5.75-3 2.875-1.5 11.501-6 5.74-2.996c4.841-2.526 9.682-5.05 14.525-7.574a5941.099 5941.099 0 0 0 26.359-13.805c8.901-4.696 17.838-9.323 26.776-13.95a3156.16 3156.16 0 0 0 21.833-11.417c7.612-4.015 15.25-7.978 22.888-11.944 6.22-3.231 12.43-6.48 18.628-9.751A3272.39 3272.39 0 0 1 361.5 104c8.502-4.402 16.995-8.82 25.46-13.293 4.42-2.333 8.847-4.65 13.282-6.953l3.212-1.67 6.248-3.239 2.837-1.474 2.538-1.315c1.871-.91 1.871-.91 2.923-2.056Z"/><path fill="#2094F0" d="M219 353c6.045 1.813 12.024 3.632 17.977 5.7l2.109.726c2.18.752 4.36 1.507 6.539 2.262l4.488 1.548c3.63 1.253 7.259 2.508 10.887 3.764-1.582 4.194-3.505 7.172-6.313 10.688-4.111 5.222-8.064 10.536-11.937 15.937a2485.289 2485.289 0 0 1-14.375 19.813l-1.794 2.457-1.683 2.289-1.479 2.017C222 422 222 422 219 425v-72Z"/></svg>