<svg xmlns="http://www.w3.org/2000/svg" width="4118" height="512"><path d="M502 0c4.896 2.273 7.792 5.074 10 10 1.124 11.661-1.1 23.321-2.848 34.81l-.924 6.24a6577.045 6577.045 0 0 1-2.54 16.966c-.909 6.043-1.805 12.087-2.703 18.131a26610.36 26610.36 0 0 1-4.934 33.006c-1.509 10.06-3.014 20.12-4.516 30.18l-.301 2.013a310780.35 310780.35 0 0 0-4.52 30.27l-.3 2.018c-1.407 9.421-2.816 18.842-4.227 28.263-4.45 29.716-8.872 59.436-13.234 89.165-.96 6.533-1.92 13.065-2.883 19.597-.13.888-.262 1.776-.397 2.69-.514 3.493-1.03 6.985-1.545 10.477-1.456 9.873-2.906 19.747-4.343 29.623-.88 6.048-1.771 12.095-2.67 18.14-.507 3.409-1.009 6.818-1.498 10.228-.523 3.63-1.063 7.257-1.607 10.883l-.442 3.155c-1.108 7.212-2.725 13.44-8.13 18.582-4.634 2.97-9.09 3.2-14.438 2.563-5.307-1.38-10.453-3.19-15.625-5-1.576-.54-3.152-1.079-4.728-1.616-3.41-1.164-6.817-2.337-10.222-3.514a2663.623 2663.623 0 0 0-16.734-5.702 6525.93 6525.93 0 0 1-61.946-21.295A3742.578 3742.578 0 0 1 293 379l-.84 1.771c-1.103 2.119-2.304 3.96-3.707 5.89l-1.539 2.124-1.664 2.277-1.744 2.401a4117.964 4117.964 0 0 1-17.74 24.146c-2.926 3.96-5.846 7.926-8.766 11.891l-3.5 4.75-1.75 2.375-5.25 7.125-1.752 2.377c-1.16 1.576-2.321 3.15-3.483 4.726-3.007 4.08-6.012 8.163-9.011 12.249l-1.873 2.548a4459.96 4459.96 0 0 0-3.5 4.77C213.292 488.903 213.292 488.903 207 491c-5.697.564-10.128.286-15-3-4.552-4.805-6.253-9.19-6.24-15.764l-.009-3.489.022-3.799v-4.022c-.002-3.632.01-7.263.024-10.895.013-3.799.014-7.597.016-11.395.006-7.19.023-14.379.043-21.568.022-8.186.033-16.372.043-24.559.021-16.836.056-33.673.101-50.509l-2.186-.585c-5.068-1.367-10.1-2.76-15.072-4.445l-3.343-1.129-3.524-1.2-3.767-1.276c-3.344-1.132-6.687-2.27-10.029-3.407a8015.73 8015.73 0 0 0-6.294-2.139c-18.504-6.28-36.983-12.63-55.415-19.122a2053.56 2053.56 0 0 0-29.8-10.207 7578.87 7578.87 0 0 1-10.169-3.408l-2.034-.682c-3.983-1.335-7.97-2.66-11.958-3.978-3.08-1.02-6.156-2.055-9.233-3.086l-3.372-1.103c-6.99-2.36-14.018-4.785-18.777-10.674C-.884 270.797-.614 266.03 0 261c3.527-7.315 9.94-10.693 16.914-14.195l2.312-1.18c2.464-1.255 4.931-2.502 7.399-3.75 2.545-1.295 5.09-2.593 7.634-3.89a7080.76 7080.76 0 0 1 4.992-2.543 1165.372 1165.372 0 0 0 17.124-8.88l2.138-1.131 4.23-2.24c4.494-2.371 9.001-4.717 13.507-7.066a825403249.844 825403249.844 0 0 1 8.81-4.593A558667.844 558667.844 0 0 1 105.25 201l2.875-1.5 11.501-6 5.74-2.996c4.841-2.526 9.682-5.05 14.525-7.574a5941.099 5941.099 0 0 0 26.359-13.805c8.901-4.696 17.838-9.323 26.776-13.95a3156.16 3156.16 0 0 0 21.833-11.417c7.612-4.015 15.25-7.978 22.888-11.944 6.22-3.231 12.43-6.48 18.628-9.751 8.86-4.677 17.755-9.283 26.651-13.889a3156.9 3156.9 0 0 0 21.833-11.416c7.612-4.015 15.25-7.978 22.888-11.944 6.22-3.231 12.43-6.48 18.628-9.751A3272.39 3272.39 0 0 1 369.5 63c8.518-4.41 17.025-8.84 25.509-13.317 9-4.748 18.027-9.447 27.052-14.15L436.5 28c5.796-3.025 11.593-6.049 17.39-9.07l2.94-1.534a2005.35 2005.35 0 0 1 5.802-3.01c4.587-2.377 9.13-4.798 13.614-7.363C492.728-2.307 492.728-2.307 502 0Z" fill="#010203"/><path d="m2222 50 3.409.554c29.285 4.952 56.676 15.298 83.97 26.696 10.442 4.883 10.442 4.883 21.621 5.75a69.943 69.943 0 0 0 4.063-2.625c3.548-2.441 3.548-2.441 7.25-1.813C2345 80 2345 80 2348 82c-.613 3.907-1.81 6.984-3.59 10.508l-1.61 3.208-1.738 3.409-1.789 3.548a1112.098 1112.098 0 0 1-11.377 21.822c-5.809 10.985-11.077 22.25-16.429 33.463A604.175 604.175 0 0 1 2307 167c-3.403-1.059-6.014-2.009-9-4-.52-2.102-.52-2.102-.813-4.625-1.405-7.813-5.409-12.307-11.75-16.875A349.769 349.769 0 0 0 2280 138l-2.973-1.934c-42.062-26.738-93.453-32.66-141.927-22.868-13.694 3.076-26.232 10.04-34.1 21.99-3.942 7.117-4.997 13.71-4 21.812 2.032 6.147 4.643 10.287 10 14 8.28 4.115 16.94 6.43 26.027 7.91l3.063.504c18.916 2.964 38.043 4.618 57.082 6.583 102.01 10.559 102.01 10.559 132.39 46.19C2336.71 246.36 2345.05 262.85 2347 281l.328 2.754c3.278 31.008-6.674 56.293-25.328 80.558-24.247 29.478-66.495 40.068-102.74 43.749-60.02 5.763-115.068-3.859-169.729-29.08-2.176-.996-4.353-1.99-6.531-2.981l-3.332-1.533-3.2-1.416-2.83-1.272c-3.035-.896-4.651-.761-7.638.221l-2.5 2.125c-2.5 1.875-2.5 1.875-5 1.813-2.738-1.027-5.059-2.334-7.5-3.938.655-5.188 2.952-9.62 5.125-14.313.82-1.799 1.641-3.598 2.46-5.398l1.238-2.706a928.818 928.818 0 0 0 4.927-11.02l1.547-3.497c1.43-3.33 2.71-6.707 3.988-10.097 2.855-7.475 6.102-14.746 9.402-22.031l1.76-3.913c4.565-10.133 4.565-10.133 6.553-14.025 7.131.972 7.131.972 10 3 .617 2.504.617 2.504.875 5.563 1.68 12.014 9.717 18.542 18.938 25.585 28.881 20.175 68.3 28.017 102.924 28.202 2.234.017 4.467.044 6.701.082 24.737.423 52.137-3.209 71.374-20.557 7.226-7.794 11.303-17.258 11.438-27.75l.078-3.617c-.556-5.941-3.362-10.16-7.328-14.508-13.518-10.115-34.223-10.894-50.332-12.93l-2-.255c-16.83-2.148-33.698-3.953-50.568-5.742-73.35-7.795-73.35-7.795-102.1-29.073l-2.184-1.48c-15.807-11-25.834-29.131-29.628-47.708l-.637-3.115c-4.938-26.373-1.514-55.746 13.297-78.54C2059.49 72.936 2089.5 57.682 2124 51l3.274-.642c30.74-5.747 63.901-5.463 94.726-.358ZM833.307 75.622C845.754 81.627 845.754 81.627 859 83a92.804 92.804 0 0 0 4-2.625c3.6-2.443 3.6-2.443 7.312-1.812C873 80 873 80 876 82c-.62 4.063-1.944 7.238-3.8 10.895l-1.714 3.396-1.799 3.522-1.763 3.486a3591.611 3591.611 0 0 1-3.404 6.71A1541.869 1541.869 0 0 0 858 121l-23 46c-3.403-1.059-6.014-2.009-9-4-.52-2.102-.52-2.102-.813-4.625-1.423-7.914-5.482-12.37-11.937-16.937l-2.652-1.735C808 138 808 138 805.87 136.36c-34.421-26.354-85.72-31.148-127.329-25.714-18.259 2.55-35.321 6.375-47.35 21.652-5.526 7.897-7.38 15.057-6.192 24.703 2.445 7.395 5.942 11.835 12.863 15.527 8.951 3.66 17.868 5.467 27.414 6.914l2.078.32c18.352 2.815 36.815 4.626 55.284 6.479 101.466 10.182 101.466 10.182 131.677 46.335 17.104 21.821 24.01 49.134 20.996 76.488C873.061 324.65 868.064 339.008 859 352l-1.8 3.3c-14.986 26.383-47.314 38.966-74.87 46.799-10.024 2.747-20.002 4.35-30.33 5.464l-3.603.391c-9.46 1-18.888 1.77-28.397 2.046l-3.926.125c-53.05 1.094-100.854-13.158-148.219-35.616l-2.968-1.388-2.615-1.236c-3.19-1.242-5.109-1.165-8.272.115l-2.563 2.125C549 376 549 376 546.5 375.938c-2.738-1.027-5.059-2.334-7.5-3.938.657-4.73 2.57-8.775 4.562-13.062.81-1.773 1.619-3.547 2.426-5.32l1.409-3.088a3069.842 3069.842 0 0 0 8.786-19.576c1.045-2.342 2.094-4.682 3.143-7.023 3.423-7.662 6.67-15.334 9.624-23.19 1.314-3.431 2.793-6.732 4.362-10.053l1.551-3.301L576 285c7.397 1.009 7.397 1.009 10 3 .617 2.504.617 2.504.875 5.563 1.318 9.43 6.234 15.375 13.398 21.402 26.99 20.146 65.886 32.225 99.352 32.406 1.068.01 2.135.018 3.235.027 2.245.015 4.49.024 6.736.028 3.369.011 6.735.06 10.103.111 24.027.179 49.897-4.793 68.176-21.724 8.243-8.708 11.52-18.616 11.398-30.36-.479-6.055-2.941-9.351-7.21-13.578-13.558-10.71-34.845-11.683-51.266-13.777l-2.016-.26c-16.867-2.16-33.772-3.972-50.681-5.765-13.67-1.453-27.312-2.975-40.893-5.12l-2.985-.467C623.388 253.057 603.032 245.614 586 233l-2.45-1.742c-18.687-13.77-27.173-35.397-31.152-57.617-2.956-27.018 1.969-55.91 19.043-77.766a148.266 148.266 0 0 1 4.516-4.797c2.106-2.056 2.106-2.056 3.902-4.512 2.552-3.059 5.443-5.455 8.578-7.878.618-.48 1.236-.958 1.872-1.45C610.863 61.555 632.91 54.63 658 50l2.792-.518c59.256-10.44 118.01 3.461 172.515 26.14Z" fill="#63B4F5"/><path d="M3450 115c27.635-.047 55.27-.082 82.906-.104 12.834-.01 25.667-.024 38.501-.047 11.196-.02 22.391-.033 33.587-.037 5.919-.003 11.838-.009 17.757-.023 5.59-.014 11.18-.018 16.771-.015 2.034 0 4.067-.005 6.1-.012 34.381-.125 69.086 2.327 95.769 26.394 18.094 19.092 20.304 43.585 19.74 68.658-.789 19.086-9.103 35.852-22.881 48.936-16.317 13.886-35.909 19.855-56.25 25.25l1.512 1.773c7.307 8.737 13.897 17.945 20.488 27.227l1.609 2.263c15.623 21.998 15.623 21.998 21.348 30.717 2.131 3.15 4.395 6.144 6.73 9.145 3.335 4.29 6.6 8.618 9.813 13 10.185 13.557 19.069 22.149 35.5 26.875v9h-123v-9l2.117-.734 2.758-1.016 2.742-.984c2.77-1.472 3.441-2.31 4.383-5.266.8-10.735-6.963-19.672-12.813-27.938l-1.751-2.513c-3.018-4.292-6.131-8.457-9.44-12.53-4.002-4.946-7.584-10.108-11.121-15.394-1.3-1.928-2.603-3.855-3.906-5.781l-1.985-2.934c-3.714-5.447-7.517-10.832-11.328-16.212-3.04-4.311-5.945-8.665-8.689-13.171-.88-1.513-.88-1.513-1.967-2.527a139.474 139.474 0 0 0-6.356-.205l-2.01-.03c-2.202-.032-4.404-.057-6.607-.081l-4.57-.063a6800.6 6800.6 0 0 0-12.048-.153c-4.095-.05-8.19-.106-12.286-.161-8.04-.108-16.082-.21-24.123-.307.085 11.58.18 23.158.288 34.737a7425 7425 0 0 1 .134 16.132c.037 5.194.083 10.387.136 15.58.019 1.978.034 3.955.045 5.932.017 2.779.046 5.557.078 8.336l.007 2.452c.095 6.56.389 13.286 4.437 18.644 3.475 2.644 6.906 4.37 10.875 6.187v9h-103v-9l2.047-.7c7.154-2.583 7.154-2.583 11.953-8.3 2.243-5.315 2.284-10.106 2.26-15.772.005-.98.008-1.958.012-2.966.01-3.278.007-6.554.003-9.832l.015-7.052c.014-6.384.014-12.769.012-19.153-.002-6.005.005-12.01.01-18.015.01-12.621.009-25.243.003-37.865-.006-11.536.006-23.072.025-34.609.02-11.855.027-23.71.024-35.565-.002-6.652 0-13.304.014-19.956.013-6.257.011-12.514-.002-18.77-.002-2.295 0-4.589.009-6.883.01-3.136.002-6.272-.01-9.409l.022-2.738c-.05-5.808-.795-11.152-3.397-16.415-3.874-3.346-8.288-5.115-13-7v-9Zm87 55v62c21.298.03 21.298.03 42.596.05 7.62.006 15.242.013 22.863.025 6.685.012 13.37.017 20.054.02 2.544.002 5.087.005 7.63.01 3.577.008 7.155.009 10.733.009l3.145.01c14.71-.02 27.92-.07 39.061-10.815 6.096-7.338 6.72-16.295 6.29-25.5-.896-9.19-4.063-14.28-11.056-20.215-13.033-8.968-34.001-5.85-48.933-5.79l-8.011.01c-6.276.005-12.55.022-18.826.042-7.858.025-15.716.035-23.573.046-13.991.02-27.982.06-41.973.098ZM1257 115h112v9l-6.055 2.93c-2.096 1.036-2.096 1.036-3.945 3.07-.961 5.889.839 8.85 4.048 13.492 3.618 4.649 7.848 8.67 12.077 12.758 1.776 1.732 3.55 3.466 5.32 5.203l2.36 2.286C1385 166 1385 166 1386.818 168.38c2.24 2.69 4.533 4.659 7.29 6.806 5.755 4.62 10.969 9.618 16.162 14.854l2.801 2.803c1.937 1.939 3.87 3.88 5.8 5.824 2.458 2.474 4.921 4.941 7.387 7.406 2.381 2.382 4.759 4.768 7.137 7.155l2.651 2.655c3.478 3.505 6.907 6.985 10.054 10.791 2.63 3.145 5.569 5.722 8.684 8.377 4.415 3.885 8.513 8.105 12.665 12.266l2.957 2.954c2.051 2.05 4.1 4.102 6.149 6.155 2.612 2.618 5.229 5.231 7.847 7.843 2.03 2.027 4.06 4.057 6.087 6.087 1.428 1.43 2.858 2.857 4.289 4.284 4.294 4.31 8.405 8.624 12.222 13.361a103.245 103.245 0 0 0 4.25 3.813l2.078 1.769L1515 295l1 1c.07-20.775.123-41.55.155-62.325.016-9.646.037-19.292.071-28.938.03-8.407.05-16.814.056-25.221.004-4.452.013-8.904.035-13.356.02-4.19.027-8.38.022-12.57.001-1.538.007-3.076.019-4.614.015-2.1.011-4.2.003-6.3l.008-3.562c-.545-4.6-2.317-7.147-5.681-10.239-2.79-1.946-5.607-3.442-8.688-4.875v-9c12.5-.023 25-.04 37.499-.052 5.803-.005 11.607-.012 17.41-.023 5.596-.011 11.191-.017 16.787-.02 2.14-.002 4.28-.005 6.42-.01 2.986-.008 5.972-.009 8.958-.009l2.71-.01c6.102.01 6.102.01 7.216 1.124.141 2.67.042 5.324 0 8l-2.52 1.172-3.293 1.578-3.269 1.547c-4 2.334-5.47 4.356-6.918 8.703a65.216 65.216 0 0 0-.131 4.179l-.012 2.593.003 2.85-.01 3.026c-.008 3.363-.01 6.725-.011 10.088l-.015 7.213c-.013 6.543-.02 13.087-.024 19.63-.003 4.086-.007 8.171-.012 12.257-.012 11.31-.022 22.62-.026 33.932V237.16l-.002 4.411v2.21c-.005 11.82-.022 23.64-.046 35.46-.023 12.134-.036 24.268-.037 36.402 0 6.814-.007 13.627-.025 20.44-.017 6.408-.018 12.816-.01 19.224.001 2.353-.003 4.707-.013 7.06-.013 3.21-.007 6.42.004 9.63l-.025 2.83c.04 5.152.539 8.7 3.392 13.172 1.541 1.605 1.541 1.605 3.313 2.688l1.835 1.21c2.55 1.518 5.16 2.855 7.852 4.102.042 2.333.04 4.667 0 7-1 1-1 1-2.747 1.123l-2.321-.003-2.656.004-2.936-.01h-3.075c-3.37 0-6.742-.009-10.113-.016l-6.99-.005c-6.147-.003-12.294-.013-18.441-.024-6.267-.01-12.534-.015-18.801-.02-12.307-.01-24.613-.028-36.92-.049v-9l8-2c1.505-3.296 2.381-5.526 1.459-9.092-4.159-9.005-11.26-15.294-18.272-22.096-1.26-1.243-2.518-2.487-3.775-3.732-5.469-5.395-10.973-10.703-16.817-15.695-2.318-2.013-4.454-4.186-6.595-6.385-2.97-3.01-5.961-5.892-9.188-8.625-2.476-2.12-4.654-4.269-6.742-6.77-4.819-5.575-10.05-10.734-15.267-15.932a2174.803 2174.803 0 0 1-5.2-5.206 8261.426 8261.426 0 0 0-3.38-3.377l-1.532-1.538a150.967 150.967 0 0 0-8.338-7.694c-5.103-4.426-9.83-9.223-14.585-14.014-1.68-1.694-3.364-3.384-5.049-5.074-4.18-4.194-8.355-8.393-12.53-12.592-3.54-3.56-7.083-7.118-10.628-10.673a3609.933 3609.933 0 0 1-4.932-4.963c-4.76-4.784-9.53-9.504-14.71-13.84-2.762-2.45-5.323-5.077-7.919-7.702-.07 20.984-.123 41.968-.155 62.952-.016 9.744-.037 19.487-.071 29.23-.03 8.494-.05 16.988-.056 25.482-.004 4.496-.013 8.992-.035 13.488-.02 4.236-.027 8.47-.022 12.706-.001 1.551-.007 3.102-.019 4.654-.4 12.865-.4 12.865 5.545 23.8 3.507 2.104 6.94 3.375 10.813 4.688v9h-97v-9l2.047-.629c6.272-2.083 6.272-2.083 10.515-6.871 1.677-4.082 2.562-7.335 2.57-11.734l.011-2.553-.003-2.79.01-2.975c.008-3.3.01-6.599.011-9.898l.015-7.086c.015-7.094.02-14.188.026-21.281.002-3.342.006-6.685.01-10.027.012-11.112.022-22.225.026-33.338v-2.154a345487435.518 345487435.518 0 0 0 .002-6.493v-2.17c.005-11.605.022-23.21.046-34.815.023-11.92.036-23.84.037-35.759 0-6.69.007-13.38.025-20.071.016-6.294.018-12.588.01-18.882-.001-2.309.003-4.618.013-6.927.013-3.154.007-6.308-.004-9.463l.025-2.762c-.051-6.63-.82-12.678-5.642-17.635-3.174-1.947-6.284-3.328-9.75-4.687v-9Z" fill="#63B4F6"/><path d="M1646 115c24.41-.047 48.82-.082 73.23-.104 11.337-.01 22.673-.024 34.009-.047 9.89-.02 19.78-.033 29.669-.037a6781.42 6781.42 0 0 0 15.684-.023c4.94-.014 9.878-.018 14.816-.015 1.796 0 3.592-.005 5.387-.012 17.179-.071 34.316 1.08 51.205 4.363l3.271.635c14.262 2.958 28.754 7.754 40.729 16.24l3.418 2.348c9.565 6.639 18.25 13.53 25.582 22.652l1.215 1.482C1961.833 184.21 1968.97 208.675 1972 236l.402 3.293c4.443 42.176-2.487 85.202-29.402 118.707-23.054 27.973-55.729 40.684-91 45l-2.04.252c-9.359 1.007-18.71.88-28.11.862h-5.768c-5.19 0-10.382-.006-15.574-.013-5.435-.006-10.871-.006-16.307-.008-10.281-.003-20.562-.01-30.843-.021-11.71-.011-23.42-.017-35.13-.022-24.076-.01-48.152-.028-72.228-.05v-9l2.047-.7c7.154-2.583 7.154-2.583 11.953-8.3 2.243-5.315 2.284-10.106 2.26-15.772.005-.98.008-1.958.012-2.966.01-3.278.007-6.554.003-9.832l.015-7.052c.014-6.384.014-12.769.012-19.153-.002-6.005.005-12.01.01-18.015.01-12.621.009-25.243.003-37.865-.006-11.536.006-23.072.025-34.609.02-11.855.027-23.71.024-35.565-.002-6.652 0-13.304.014-19.956.013-6.257.011-12.514-.002-18.77-.002-2.295 0-4.589.009-6.883.01-3.136.002-6.272-.01-9.409l.022-2.738c-.05-5.808-.795-11.152-3.397-16.415-3.874-3.346-8.288-5.115-13-7v-9Zm87 55v180c73.307 6.188 73.307 6.188 142-20l2.238-1.918c18.105-16.666 23.595-40.888 24.639-64.519.78-25.576-5.346-49.594-21.877-69.563l-1.754-2.133c-11.672-12.857-28.442-18.88-45.246-20.867l-1.965-.253c-5.494-.673-10.879-.885-16.41-.86h-2.737c-2.891 0-5.782.007-8.673.015l-5.394.003c-6.628.006-13.256.02-19.883.032L1733 170Z" fill="#63B5F5"/><path d="M1199 99h9v86h-9l-1.102-2.555-1.523-3.32-1.477-3.305c-2.398-3.563-3.783-3.788-7.898-4.82a97.512 97.512 0 0 0-7.555-.278l-2.243-.018c-2.469-.017-4.938-.02-7.407-.023l-5.322-.03c-4.81-.028-9.62-.043-14.429-.056-5.028-.015-10.057-.042-15.086-.068-9.52-.047-19.04-.083-28.559-.116-10.84-.039-21.678-.088-32.517-.138-22.294-.104-44.588-.191-66.882-.273v61c19.533-.09 19.533-.09 39.066-.209 7.969-.054 15.937-.105 23.906-.137a5104.67 5104.67 0 0 0 19.277-.117c2.45-.017 4.899-.028 7.348-.035 3.436-.01 6.87-.037 10.305-.07l3.058.005c6.023-.08 10.577-.833 16.04-3.437 3.299-3.923 5.113-8.284 7-13h9v84h-9l-.848-2.047c-2.806-6.245-4.74-9.366-11.152-11.953-5.503-1.24-10.984-1.173-16.595-1.205l-3.195-.03c-3.474-.032-6.947-.057-10.42-.081l-7.24-.063c-6.342-.056-12.684-.105-19.027-.153-7.614-.06-15.228-.126-22.842-.19-11.56-.098-23.12-.187-34.681-.278v68c23.835-.085 47.67-.18 71.506-.288 11.067-.05 22.134-.096 33.202-.134 9.648-.033 19.295-.073 28.943-.12 5.107-.026 10.214-.048 15.321-.061 4.811-.013 9.622-.035 14.432-.064 1.762-.01 3.524-.015 5.286-.017 13.999.84 13.999.84 26.212-4.086.513-1.01.513-1.01 1.035-2.043l1.133-2.144c1.058-2.325 2.1-4.626 2.93-7.043h8v86h-8l-1.137-2.555-1.55-3.32c-.5-1.09-.998-2.181-1.512-3.305-2.088-3.27-3.102-3.878-6.801-4.82-5.641-1.21-11.186-1.15-16.927-1.151l-3.342-.013c-3.697-.013-7.393-.02-11.09-.025l-7.948-.026c-5.705-.018-11.41-.033-17.115-.045-8.249-.019-16.498-.043-24.747-.07-13.386-.042-26.772-.082-40.158-.118l-2.427-.006a619176.129 619176.129 0 0 0-36.571-.098l-2.428-.007c-13.343-.036-26.685-.076-40.027-.119-8.234-.026-16.467-.048-24.7-.067-5.635-.012-11.27-.028-16.903-.047-3.255-.011-6.51-.02-9.765-.025-3.52-.006-7.04-.018-10.56-.032h-3.15l-2.835-.015-2.465-.007C921 404 921 404 920 403c-.141-2.67-.042-5.324 0-8l2.047-.7c7.154-2.583 7.154-2.583 11.953-8.3 2.243-5.315 2.284-10.106 2.26-15.772.005-.98.008-1.958.012-2.966.01-3.278.007-6.554.003-9.832l.015-7.052c.014-6.384.014-12.769.012-19.153-.002-6.005.005-12.01.01-18.015.01-12.621.009-25.243.003-37.865-.006-11.536.006-23.072.025-34.609.02-11.855.027-23.71.024-35.565-.002-6.652 0-13.304.014-19.956.013-6.257.011-12.514-.002-18.77-.002-2.295 0-4.589.009-6.883.01-3.136.002-6.272-.01-9.409l.022-2.738c-.05-5.808-.795-11.152-3.397-16.415-3.874-3.346-8.288-5.115-13-7-.098-6.152-.098-6.152 0-8 1.562-1.562 3.072-1.129 5.245-1.133l2.792-.013 3.103.001 3.27-.01c3.644-.011 7.29-.015 10.934-.019l7.804-.02c5.617-.015 11.234-.026 16.851-.036 8.128-.014 16.256-.035 24.384-.058 13.194-.038 26.389-.073 39.583-.105l2.395-.006c11.21-.026 22.42-.05 33.63-.073l2.391-.005 2.388-.005c13.137-.026 26.275-.06 39.412-.101 8.107-.025 16.214-.044 24.32-.054 6.214-.008 12.428-.026 18.641-.049 2.55-.007 5.1-.011 7.65-.012 3.478 0 6.955-.014 10.432-.03l3.07.008c4.936-.037 9.119-.214 13.705-2.28 1.677-1.71 1.677-1.71 2.75-3.813l1.215-2.144c1.166-2.301 2.196-4.602 3.035-7.043ZM4088 99h9v86h-9l-1.137-2.555-1.55-3.32c-.5-1.09-.998-2.181-1.512-3.305-2.14-3.35-3.056-3.716-6.801-4.82a92.732 92.732 0 0 0-7.435-.278c-1.109-.01-1.109-.01-2.24-.018-2.472-.017-4.944-.02-7.416-.023l-5.322-.03a4850.17 4850.17 0 0 0-14.441-.056c-5.032-.015-10.063-.042-15.095-.068-9.526-.047-19.053-.083-28.58-.116-10.846-.039-21.693-.088-32.539-.138-22.31-.104-44.621-.192-66.932-.273v61c19.533-.09 19.533-.09 39.066-.209 7.969-.054 15.937-.105 23.906-.137a5104.67 5104.67 0 0 0 19.277-.117c2.45-.017 4.899-.028 7.348-.035 3.436-.01 6.87-.037 10.305-.07l3.058.005c6.015-.08 10.598-.795 16.04-3.437 2.216-3.082 2.216-3.082 3.5-6.688l1.469-3.574L4022 214h9v84h-9c-.838-1.622-1.67-3.248-2.5-4.875l-1.406-2.742C4017 288 4017 288 4017 286c-7.831-2.865-15.379-3.157-23.617-3.205l-3.166-.03c-3.435-.032-6.871-.057-10.307-.081l-7.167-.063c-6.275-.055-12.55-.105-18.825-.153-7.536-.06-15.071-.126-22.607-.19-11.437-.098-22.874-.187-34.311-.278v68c23.835-.063 47.67-.138 71.506-.236 11.067-.045 22.134-.084 33.202-.11a12213.1 12213.1 0 0 0 28.943-.103 4431.95 4431.95 0 0 1 15.321-.049c4.811-.006 9.622-.026 14.432-.056a883.69 883.69 0 0 1 5.286-.011c12.478.13 12.478.13 24.31-3.435 2.311-2.83 2.311-2.83 3.563-6.188l1.44-3.292.997-2.52h9v86h-9l-1.172-2.555-1.578-3.32-1.547-3.305c-1.811-3-2.423-3.822-5.703-4.82-6.032-1.09-11.935-1.152-18.054-1.158l-3.347-.015c-3.696-.016-7.391-.024-11.087-.032l-7.954-.03c-5.705-.022-11.41-.04-17.116-.056-8.249-.023-16.498-.05-24.747-.08-13.384-.048-26.768-.091-40.152-.132-13-.04-25.999-.08-38.998-.125l-2.43-.008-12.065-.041c-33.35-.114-66.7-.22-100.05-.323v-9l2.047-.7c7.154-2.583 7.154-2.583 11.953-8.3 2.243-5.315 2.284-10.106 2.26-15.772.005-.98.008-1.958.012-2.966.01-3.278.007-6.554.003-9.832l.015-7.052c.014-6.384.014-12.769.012-19.153-.002-6.005.005-12.01.01-18.015.01-12.621.009-25.243.003-37.865-.006-11.536.006-23.072.025-34.609.02-11.855.027-23.71.024-35.565-.002-6.652 0-13.304.014-19.956.013-6.257.011-12.514-.002-18.77-.002-2.295 0-4.589.009-6.883.01-3.136.002-6.272-.01-9.409l.022-2.738c-.05-5.808-.795-11.152-3.397-16.415-3.874-3.346-8.288-5.115-13-7v-9l4.122-.01a137165.73 137165.73 0 0 0 108.769-.307l2.396-.008c12.81-.04 25.62-.072 38.429-.102 13.142-.032 26.284-.07 39.426-.116 8.11-.028 16.22-.05 24.33-.064a8083.57 8083.57 0 0 0 18.653-.06c2.552-.01 5.104-.015 7.655-.017 3.48-.004 6.959-.019 10.438-.038l3.072.006c4.937-.04 9.124-.218 13.71-2.284 1.677-1.71 1.677-1.71 2.75-3.813l1.215-2.144c1.166-2.301 2.196-4.602 3.035-7.043Z" fill="#63B4F6"/><path d="m2735.732 114.877 2.299.003 2.63-.004 2.908.01h3.044c3.339 0 6.677.009 10.016.016l6.923.005c6.088.003 12.176.013 18.264.024 6.206.01 12.413.015 18.62.02 12.188.01 24.376.028 36.564.049v9l-2.52 1.102-3.292 1.523c-1.619.73-1.619.73-3.27 1.477-3.52 2.29-4.467 3.992-5.918 7.898-1.006 4.797-1.169 9.51-1.205 14.392l-.03 2.525c-.032 2.682-.057 5.363-.081 8.044l-.057 4.986c-.068 6.142-.128 12.285-.19 18.428L2820 226h158l-.312-44.625-.076-14.073c-.037-4.175-.037-4.175-.077-8.35-.016-1.855-.026-3.71-.032-5.564-.01-2.816-.038-5.63-.07-8.445 0-.822.002-1.643.004-2.49-.08-4.865-.737-8.244-3.437-12.453-2.66-1.974-2.66-1.974-5.687-3.375l-3.012-1.523L2963 124v-9h103v9l-2.52 1.137-3.292 1.55-3.27 1.512c-3.696 2.28-5.249 4.56-6.483 8.695-.45 2.174-.563 4.121-.566 6.34l-.012 2.553.003 2.79-.01 2.975c-.008 3.3-.01 6.599-.011 9.898l-.015 7.086c-.015 7.094-.02 14.188-.026 21.281-.002 3.342-.006 6.685-.01 10.027-.012 11.112-.022 22.225-.026 33.338v4.314a1012502.772 1012502.772 0 0 1-.003 6.503c-.004 11.605-.021 23.21-.045 34.815-.023 11.92-.036 23.84-.037 35.759 0 6.69-.007 13.38-.025 20.071-.016 6.294-.018 12.588-.01 18.882.001 2.309-.003 4.618-.013 6.927-.013 3.154-.007 6.308.004 9.463l-.025 2.762c.045 5.771.982 10.056 3.392 15.322 1.758 1.865 1.758 1.865 3.875 2.875l2.117 1.16c2.301 1.106 4.593 2.135 7.008 2.965v9h-103v-9l2.047-.883 2.703-1.242 2.672-1.195c3.179-2.071 5.07-4.234 6.578-7.68.58-3.442.564-6.835.546-10.32l.031-3.156c.03-3.36.031-6.719.032-10.079.014-2.079.03-4.157.048-6.236.052-7.695.07-15.39.093-23.084L2978 279h-158l.375 48.438.103 15.255.082 9.08c.018 2.01.032 4.022.043 6.033.017 3.06.046 6.118.078 9.176l.007 2.684c.09 6.714.305 13.597 4.375 19.147 3.73 2.778 7.62 4.503 11.937 6.187v9c-13.412.023-26.825.04-40.237.052-6.227.005-12.454.012-18.681.023-6.004.011-12.008.017-18.012.02-2.297.002-4.593.005-6.89.01-3.203.008-6.407.009-9.611.009l-2.908.01-2.63-.004-2.3.003C2734 404 2734 404 2733 403c-.141-2.67-.042-5.324 0-8l2.047-.7c7.154-2.583 7.154-2.583 11.953-8.3 2.243-5.315 2.284-10.106 2.26-15.772.005-.98.008-1.958.012-2.966.01-3.278.007-6.554.003-9.832l.015-7.052c.014-6.384.014-12.769.012-19.153-.002-6.005.005-12.01.01-18.015.01-12.621.009-25.243.003-37.865-.006-11.536.006-23.072.025-34.609.02-11.855.027-23.71.024-35.565-.002-6.652 0-13.304.014-19.956.013-6.257.011-12.514-.002-18.77-.002-2.295 0-4.589.009-6.883.01-3.136.002-6.272-.01-9.409l.022-2.738c-.05-5.808-.795-11.152-3.397-16.415-3.874-3.346-8.288-5.115-13-7-.098-6.152-.098-6.152 0-8 1-1 1-1 2.732-1.123Z" fill="#63B5F6"/><path d="M3392 99h9v86h-9l-1.137-2.555-1.55-3.32c-.5-1.09-.998-2.181-1.512-3.305-2.14-3.351-3.055-3.716-6.801-4.82a93.645 93.645 0 0 0-7.473-.278l-2.252-.018c-2.486-.017-4.972-.02-7.458-.023l-5.352-.03c-4.84-.028-9.68-.043-14.521-.056-5.06-.015-10.12-.042-15.179-.068-9.58-.047-19.16-.083-28.74-.116-10.906-.039-21.813-.088-32.72-.138-22.435-.104-44.87-.192-67.305-.273v61c19.735-.09 19.735-.09 39.47-.209 8.05-.054 16.1-.106 24.15-.137 6.49-.026 12.981-.067 19.471-.117 2.476-.017 4.951-.028 7.427-.035 3.469-.01 6.937-.037 10.406-.07l3.097.005c5.751-.076 9.922-.616 14.979-3.437 3.25-3.972 5.111-8.278 7-13h9v84h-9l-.988-2.082-1.325-2.73-1.3-2.708c-1.727-3.088-3.064-5.025-6.479-6.2-6.36-1.185-12.494-1.585-18.957-1.599l-3.197-.03c-3.452-.03-6.904-.048-10.356-.065-2.407-.019-4.814-.038-7.22-.059-6.31-.05-12.62-.09-18.93-.128-7.584-.047-15.168-.109-22.752-.168-11.499-.088-22.997-.158-34.496-.231v68c23.966-.063 47.931-.138 71.897-.236 11.128-.045 22.256-.084 33.384-.11 9.7-.023 19.4-.057 29.101-.103 5.135-.024 10.27-.042 15.405-.049a2863.2 2863.2 0 0 0 14.51-.056c1.772-.009 3.544-.013 5.316-.011 12.518.137 12.518.137 24.387-3.435 2.311-2.83 2.311-2.83 3.563-6.188l1.44-3.292.997-2.52h9v86h-9l-1.172-2.555-1.578-3.32-1.547-3.305c-1.811-3-2.423-3.822-5.703-4.82-6.032-1.09-11.935-1.152-18.054-1.158l-3.347-.015c-3.696-.016-7.391-.024-11.087-.032l-7.954-.03c-5.705-.022-11.41-.04-17.116-.056-8.249-.023-16.498-.05-24.747-.08-13.384-.048-26.768-.091-40.152-.132-13-.04-25.999-.08-38.998-.125l-2.43-.008-12.065-.041c-33.35-.114-66.7-.22-100.05-.323v-9l2.047-.7c7.154-2.583 7.154-2.583 11.953-8.3 2.243-5.315 2.284-10.106 2.26-15.772.005-.98.008-1.958.012-2.966.01-3.278.007-6.554.003-9.832l.015-7.052c.014-6.384.014-12.769.012-19.153-.002-6.005.005-12.01.01-18.015.01-12.621.009-25.243.003-37.865-.006-11.536.006-23.072.025-34.609.02-11.855.027-23.71.024-35.565-.002-6.652 0-13.304.014-19.956.013-6.257.011-12.514-.002-18.77-.002-2.295 0-4.589.009-6.883.01-3.136.002-6.272-.01-9.409l.022-2.738c-.05-5.808-.795-11.152-3.397-16.415-3.874-3.346-8.288-5.115-13-7v-9l4.122-.01a137165.73 137165.73 0 0 0 108.769-.307l2.396-.008c12.81-.04 25.62-.072 38.429-.102 13.142-.032 26.284-.07 39.426-.116 8.11-.028 16.22-.05 24.33-.064a8083.57 8083.57 0 0 0 18.653-.06c2.552-.01 5.104-.015 7.655-.017 3.48-.004 6.959-.019 10.438-.038l3.072.006c4.937-.04 9.124-.218 13.71-2.284 1.677-1.71 1.677-1.71 2.75-3.813l1.215-2.144c1.166-2.301 2.196-4.602 3.035-7.043Z" fill="#63B4F6"/><path d="M2392 115c26.523-.07 53.046-.123 79.57-.155 12.317-.016 24.635-.037 36.953-.071 10.75-.03 21.498-.05 32.247-.056 5.68-.004 11.36-.013 17.04-.035 91.57-.342 91.57-.342 116.065 23.942A720.155 720.155 0 0 1 2677 142l2.5 2.313c15.496 16.657 20.862 38.494 20.5 60.687-.843 23.096-9.257 42.233-26.3 58.148-29.617 25.303-75.662 24.219-112.18 24.047l-7.216-.008a7843.58 7843.58 0 0 1-18.686-.05c-6.397-.02-12.794-.03-19.19-.04-12.476-.02-24.952-.055-37.428-.097.085 11.58.18 23.158.288 34.737a7425 7425 0 0 1 .134 16.132c.037 5.194.083 10.387.136 15.58.019 1.978.034 3.955.045 5.932.017 2.779.046 5.557.078 8.336l.007 2.452c.095 6.544.417 13.247 4.374 18.644 3.732 2.778 7.62 4.503 11.938 6.187.098 6.152.098 6.152 0 8-1 1-1 1-2.732 1.123l-2.299-.003-2.63.004-2.908-.01h-3.044c-3.339 0-6.677-.009-10.016-.016l-6.923-.005c-6.088-.003-12.176-.013-18.264-.024-6.206-.01-12.413-.015-18.62-.02-12.188-.01-24.376-.028-36.564-.049v-9l2.047-.7c7.154-2.583 7.154-2.583 11.953-8.3 2.243-5.315 2.284-10.106 2.26-15.772.005-.98.008-1.958.012-2.966.01-3.278.007-6.554.003-9.832l.015-7.052c.014-6.384.014-12.769.012-19.153-.002-6.005.005-12.01.01-18.015.01-12.621.009-25.243.003-37.865-.006-11.536.006-23.072.025-34.609.02-11.855.027-23.71.024-35.565-.002-6.652 0-13.304.014-19.956.013-6.257.011-12.514-.002-18.77-.002-2.295 0-4.589.009-6.883.01-3.136.002-6.272-.01-9.409l.022-2.738c-.05-5.808-.795-11.152-3.397-16.415-3.874-3.346-8.288-5.115-13-7v-9Zm87 55v62c19.564.03 19.564.03 39.129.049 7.988.006 15.975.013 23.963.026 6.445.011 12.89.017 19.335.02 2.45.002 4.9.005 7.35.01 26.068 1.495 26.068 1.495 49.598-7.48 7.41-7.41 9.475-15.4 9.625-25.625-.553-8.933-3.454-15.54-9.855-21.82-4.71-3.892-9.15-5.393-15.145-6.18l-3.432-.513c-5.372-.666-10.72-.619-16.125-.6l-3.432-.001c-3.722 0-7.445.008-11.167.016l-7.768.005c-6.106.003-12.211.01-18.317.021-7.638.012-15.277.018-22.915.023-13.615.01-27.23.03-40.844.049Z" fill="#63B5F6"/><path d="M471 66h1c-.792 11.006-1.85 22.023-3.91 32.871-1.484 8-2.503 16.068-3.59 24.129-2.36 17.504-2.36 17.504-3.986 26.059-1.213 6.946-2.072 13.954-3.014 20.941-2.421 17.957-2.421 17.957-4.08 26.684-.621 3.427-1.023 6.855-1.42 10.316-.497 4.335-1.092 8.59-1.906 12.875-1.49 7.998-2.507 16.065-3.594 24.125-2.421 17.957-2.421 17.957-4.08 26.684-.621 3.427-1.023 6.855-1.42 10.316-.497 4.335-1.092 8.59-1.906 12.875-1.49 7.998-2.507 16.065-3.594 24.125-2.421 17.957-2.421 17.957-4.08 26.684-.621 3.427-1.023 6.855-1.42 10.316a225.164 225.164 0 0 1-2.492 16.117c-1.045 5.93-1.75 11.912-2.508 17.883-7.565-1.5-14.71-3.796-22-6.297l-3.794-1.289a5174.9 5174.9 0 0 1-10.112-3.449c-3.523-1.203-7.048-2.401-10.572-3.6a18989.69 18989.69 0 0 1-20.811-7.098l-12.718-4.338c-7.424-2.53-14.846-5.066-22.266-7.605-6.899-2.36-13.8-4.71-20.704-7.054A5811.605 5811.605 0 0 1 232 324c1.362-3.024 2.913-5.191 5.203-7.582l1.95-2.051 2.097-2.18 4.383-4.605 2.227-2.333c3.112-3.27 6.19-6.57 9.265-9.874l3.438-3.688 1.71-1.835c1.762-1.89 3.526-3.777 5.29-5.664a3268.598 3268.598 0 0 0 16.375-17.625c5.718-6.21 11.492-12.366 17.269-18.52 5.363-5.713 10.706-11.445 16.05-17.175l5.31-5.684a3281.807 3281.807 0 0 0 16.37-17.621c5.72-6.21 11.493-12.366 17.27-18.52 5.363-5.713 10.706-11.445 16.05-17.175l5.31-5.684a3281.807 3281.807 0 0 0 16.37-17.621c5.72-6.21 11.493-12.366 17.27-18.52 5.363-5.713 10.706-11.445 16.05-17.175l5.31-5.684a3277.75 3277.75 0 0 0 16.37-17.621C466.397 70.602 466.397 70.602 471 66Z" fill="#63B4F5"/><path d="m418 74 2 1-2.379 2.344c-5.199 5.146-10.301 10.29-15.047 15.863-2.159 2.459-4.49 4.72-6.824 7.012-1.832 1.865-3.544 3.8-5.25 5.781-2.753 3.196-5.647 6.172-8.656 9.125-1.777 1.807-3.438 3.668-5.09 5.59-3.668 4.218-7.47 8.292-11.317 12.347l-4.246 4.497-2.132 2.257c-3.073 3.26-6.13 6.533-9.184 9.809l-1.725 1.85-3.432 3.682c-2.905 3.116-5.811 6.23-8.718 9.343l-1.746 1.871-8.824 9.45a3295.156 3295.156 0 0 0-16.368 17.617c-5.718 6.208-11.492 12.365-17.269 18.519-5.363 5.713-10.706 11.445-16.05 17.175l-5.31 5.684a3281.807 3281.807 0 0 0-16.37 17.621c-5.72 6.21-11.493 12.366-17.27 18.52-4.2 4.475-8.39 8.961-12.576 13.45-2.993 3.212-5.99 6.42-8.994 9.62l-1.889 2.016c-1.18 1.258-2.36 2.516-3.541 3.772-3.714 3.966-7.29 8.031-10.793 12.185-7.66-1.436-14.833-3.944-22.143-6.59-3.802-1.375-7.61-2.729-11.42-4.082l-2.388-.849c-7.92-2.804-15.885-5.467-23.862-8.104a6537.193 6537.193 0 0 1-43.727-14.66c-2.37-.804-4.742-1.606-7.113-2.407a7748.21 7748.21 0 0 1-10.042-3.402l-3.01-1.015A310.53 310.53 0 0 1 57 264c4.313-3.824 8.982-6.142 14.125-8.625 1.815-.892 3.628-1.785 5.441-2.68.915-.45 1.829-.901 2.77-1.366 3.941-1.966 7.836-4.015 11.727-6.079 7.79-4.128 15.607-8.198 23.437-12.25a3681.11 3681.11 0 0 0 25.509-13.317c9-4.748 18.027-9.447 27.052-14.15L181.5 198l5.75-3 2.875-1.5 11.501-6 5.74-2.996c4.841-2.526 9.682-5.05 14.525-7.574a5941.099 5941.099 0 0 0 26.359-13.805c8.901-4.696 17.838-9.323 26.776-13.95a3156.16 3156.16 0 0 0 21.833-11.417c7.612-4.015 15.25-7.978 22.888-11.944 6.22-3.231 12.43-6.48 18.628-9.751A3272.39 3272.39 0 0 1 361.5 104c8.502-4.402 16.995-8.82 25.46-13.293 4.42-2.333 8.847-4.65 13.282-6.953l3.212-1.67 6.248-3.239 2.837-1.474 2.538-1.315c1.871-.91 1.871-.91 2.923-2.056Z" fill="#63B4F4"/><path d="M219 353c6.045 1.813 12.024 3.632 17.977 5.7l2.109.726c2.18.752 4.36 1.507 6.539 2.262l4.488 1.548c3.63 1.253 7.259 2.508 10.887 3.764-1.582 4.194-3.505 7.172-6.313 10.688-4.111 5.222-8.064 10.536-11.937 15.937a2485.289 2485.289 0 0 1-14.375 19.813l-1.794 2.457-1.683 2.289-1.479 2.017C222 422 222 422 219 425v-72Z" fill="#2094F0"/></svg>